<svg width="140" height="42" viewBox="0 0 140 42" fill="none" xmlns="http://www.w3.org/2000/svg">
<path d="M15.012 32.956C14.052 33.364 13.02 33.712 11.916 34C10.836 34.264 9.768 34.396 8.712 34.396C7.944 34.396 7.212 34.3 6.516 34.108C5.82 33.916 5.208 33.604 4.68 33.172C4.176 32.74 3.768 32.176 3.456 31.48C3.168 30.784 3.024 29.92 3.024 28.888V20.212H0.684V15.064H3.024V9.124H9.864V15.064H13.572V20.212H9.864V26.476C9.864 27.1 9.996 27.544 10.26 27.808C10.524 28.048 10.884 28.168 11.34 28.168C11.676 28.168 12.06 28.12 12.492 28.024C12.924 27.904 13.356 27.748 13.788 27.556L15.012 32.956ZM79.8224 34H72.9824V23.344C72.9824 22.408 72.7904 21.736 72.4064 21.328C72.0464 20.896 71.6024 20.68 71.0744 20.68C70.5224 20.68 69.9344 20.932 69.3104 21.436C68.7104 21.94 68.2664 22.588 67.9784 23.38V34H61.1384V23.344C61.1384 22.408 60.9464 21.736 60.5624 21.328C60.2024 20.896 59.7584 20.68 59.2304 20.68C58.6784 20.68 58.0904 20.932 57.4664 21.436C56.8664 21.94 56.4224 22.588 56.1344 23.38V34H49.2944V15.064H55.4504V17.872C56.1224 16.84 57.0464 16.06 58.2224 15.532C59.3984 14.98 60.7904 14.704 62.3984 14.704C63.1664 14.704 63.8384 14.8 64.4144 14.992C64.9904 15.16 65.4824 15.4 65.8904 15.712C66.3224 16.024 66.6584 16.372 66.8984 16.756C67.1624 17.14 67.3664 17.548 67.5104 17.98C68.1824 16.948 69.0944 16.144 70.2464 15.568C71.4224 14.992 72.7544 14.704 74.2424 14.704C75.4904 14.704 76.4744 14.944 77.1944 15.424C77.9384 15.88 78.5024 16.456 78.8864 17.152C79.2704 17.848 79.5224 18.592 79.6424 19.384C79.7624 20.176 79.8224 20.896 79.8224 21.544V34ZM88.7299 34.36C87.7939 34.36 86.9179 34.204 86.1019 33.892C85.2859 33.58 84.5779 33.16 83.9779 32.632C83.4019 32.08 82.9459 31.432 82.6099 30.688C82.2739 29.944 82.1059 29.14 82.1059 28.276C82.1059 27.316 82.3099 26.44 82.7179 25.648C83.1259 24.856 83.6899 24.172 84.4099 23.596C85.1299 23.02 85.9819 22.576 86.9659 22.264C87.9739 21.952 89.0779 21.796 90.2779 21.796C91.8139 21.796 93.0859 22.036 94.0939 22.516V21.94C94.0939 21.052 93.8299 20.392 93.3019 19.96C92.7979 19.528 91.9699 19.312 90.8179 19.312C89.7379 19.312 88.7419 19.492 87.8299 19.852C86.9179 20.188 85.9579 20.692 84.9499 21.364L82.9699 17.116C85.4659 15.508 88.3099 14.704 91.5019 14.704C94.5259 14.704 96.8539 15.376 98.4859 16.72C100.118 18.064 100.934 20.08 100.934 22.768V26.44C100.934 27.088 101.03 27.544 101.222 27.808C101.414 28.048 101.75 28.192 102.23 28.24V34C101.678 34.12 101.15 34.204 100.646 34.252C100.166 34.324 99.7339 34.36 99.3499 34.36C98.1259 34.36 97.1899 34.144 96.5419 33.712C95.9179 33.256 95.5099 32.596 95.3179 31.732L95.1739 31.048C94.3339 32.128 93.3619 32.956 92.2579 33.532C91.1539 34.084 89.9779 34.36 88.7299 34.36ZM90.7819 29.464C91.1899 29.464 91.6099 29.404 92.0419 29.284C92.4739 29.14 92.8579 28.96 93.1939 28.744C93.4579 28.552 93.6739 28.348 93.8419 28.132C94.0099 27.892 94.0939 27.652 94.0939 27.412V26.008C93.6859 25.864 93.2419 25.744 92.7619 25.648C92.2819 25.552 91.8499 25.504 91.4659 25.504C90.6259 25.504 89.9299 25.708 89.3779 26.116C88.8259 26.524 88.5499 27.04 88.5499 27.664C88.5499 28.192 88.7539 28.624 89.1619 28.96C89.5939 29.296 90.1339 29.464 90.7819 29.464ZM117.774 32.956C116.814 33.364 115.782 33.712 114.678 34C113.598 34.264 112.53 34.396 111.474 34.396C110.706 34.396 109.974 34.3 109.278 34.108C108.582 33.916 107.97 33.604 107.442 33.172C106.938 32.74 106.53 32.176 106.218 31.48C105.93 30.784 105.786 29.92 105.786 28.888V20.212H103.446V15.064H105.786V9.124H112.626V15.064H116.334V20.212H112.626V26.476C112.626 27.1 112.758 27.544 113.022 27.808C113.286 28.048 113.646 28.168 114.102 28.168C114.438 28.168 114.822 28.12 115.254 28.024C115.686 27.904 116.118 27.748 116.55 27.556L117.774 32.956ZM128.825 34.36C127.169 34.36 125.693 34.108 124.397 33.604C123.101 33.076 122.009 32.368 121.121 31.48C120.257 30.592 119.597 29.572 119.141 28.42C118.685 27.268 118.457 26.056 118.457 24.784C118.457 23.416 118.673 22.12 119.105 20.896C119.561 19.672 120.221 18.604 121.085 17.692C121.973 16.78 123.053 16.06 124.325 15.532C125.621 14.98 127.121 14.704 128.825 14.704C130.505 14.704 131.993 14.98 133.289 15.532C134.585 16.06 135.665 16.78 136.529 17.692C137.417 18.58 138.077 19.624 138.509 20.824C138.965 22 139.193 23.236 139.193 24.532C139.193 24.892 139.169 25.264 139.121 25.648C139.097 26.008 139.061 26.332 139.013 26.62H125.729C125.801 27.628 126.173 28.36 126.845 28.816C127.517 29.248 128.249 29.464 129.041 29.464C129.785 29.464 130.481 29.296 131.129 28.96C131.801 28.624 132.245 28.156 132.461 27.556L138.257 29.212C137.489 30.724 136.301 31.96 134.693 32.92C133.109 33.88 131.153 34.36 128.825 34.36ZM131.849 22.516C131.729 21.604 131.393 20.884 130.841 20.356C130.289 19.828 129.581 19.564 128.717 19.564C127.853 19.564 127.145 19.828 126.593 20.356C126.041 20.884 125.705 21.604 125.585 22.516H131.849Z" fill="black"/>
<path d="M29 7.5H31.5V14L35.5 12.5L33 15C34.5 15.5 37.6 17.2 38 20C36 19.2 33.1667 17.6667 32 17C31.6667 17.8333 30.9 19.6 30.5 20C30.1 18.8 29.6667 17.1667 29.5 16.5C28.2146 16.5 25.8783 16.619 24.6932 17.0404C24.0841 17.5753 23.7985 17.9029 24 17.5C24.0915 17.317 24.3417 17.1654 24.6932 17.0404C25.5958 16.2478 27.2088 15 29 15C27.5973 13.5973 26.6319 12.1946 25.6948 12.0185C25.3559 12 25.2354 12 25.5 12C25.5649 12 25.6297 12.0063 25.6948 12.0185C26.6365 12.07 29.2646 12.2646 30 13C29.6 10.2 29.1667 8.16667 29 7.5Z" fill="#3EBA3C"/>
<path d="M27.5 13.5L24.5 15.5L26.5 16L29.5 15L27.5 13.5Z" fill="#F26430"/>
<path d="M35 13.5L33 15L37 14.5L35 13.5Z" fill="#F26430"/>
<path d="M25.5 16.5H30C30 17.8333 30.1 20.4 30.5 20C30.9 19.6 31.6667 17.5 32 16.5C33.3333 17.5 36.4 19.7 38 20.5C38.8 17.7 35.6667 16 34 15.5C34.8333 14.8333 37.5 13.9 41.5 15.5C45.5 17.1 46.1667 22.8333 46 25.5C45.8333 28.3333 42.7 34.1 31.5 34.5C20.3 34.9 17.1667 26.6667 17 22.5L18.5 17.5L22.5 15L25.5 15.5V16.5Z" fill="#F26430"/>
<mask id="path-6-outside-1" maskUnits="userSpaceOnUse" x="16.3185" y="6" width="31" height="30" fill="black">
<rect fill="white" x="16.3185" y="6" width="31" height="30"/>
<path d="M17.8749 18.4576C19.3307 14.755 22.5293 14.4961 24.8705 14.8775C25.4927 14.3202 26.1872 13.8493 26.9353 13.4777C26.2468 13.019 25.4534 12.7421 24.6291 12.6728C24.5519 12.6694 24.478 12.6405 24.4189 12.5907C24.3598 12.5409 24.3189 12.4729 24.3025 12.3974C24.2861 12.3218 24.2952 12.243 24.3283 12.1732C24.3614 12.1034 24.4167 12.0465 24.4856 12.0114C25.037 11.7707 25.6338 11.6514 26.2354 11.6614C27.4657 11.6843 28.656 12.1027 29.63 12.8548L28.93 7.7909C28.9213 7.72887 28.9293 7.66563 28.9533 7.60776C28.9773 7.5499 29.0164 7.49954 29.0665 7.46194C29.4781 7.17469 29.9647 7.01412 30.4663 7C30.9345 6.99965 31.387 7.1687 31.7402 7.47594C31.7797 7.50884 31.8115 7.55005 31.8332 7.59662C31.855 7.6432 31.8663 7.694 31.8662 7.74541V12.4278C32.307 12.4487 32.7376 12.5682 33.126 12.7778C34.2424 12.2353 35.7227 11.6964 37.1645 11.6964C37.5546 11.694 37.9435 11.7387 38.3229 11.8294C38.3963 11.8482 38.4617 11.8904 38.5091 11.9496C38.5565 12.0087 38.5834 12.0817 38.5858 12.1575C38.5881 12.2333 38.5658 12.3078 38.5222 12.3698C38.4786 12.4318 38.416 12.4779 38.3439 12.5013C37.5114 12.78 36.6937 13.1012 35.8942 13.4637C36.4495 13.678 36.9512 14.0112 37.364 14.4401C38.7531 14.2213 40.1759 14.4206 41.4515 15.0126C42.7271 15.6046 43.7978 16.5626 44.5276 17.7647C47.1418 21.8836 46.3929 26.5136 45.413 28.0954L45.3535 28.1934C42.5678 32.6553 38.0604 34.9475 31.9432 35H31.7017C25.602 35 21.203 32.9703 18.6273 28.9423C17.7073 27.369 17.161 25.6054 17.0305 23.7875C16.9001 21.9696 17.189 20.1461 17.8749 18.4576ZM27.5897 13.9711C26.9242 14.2378 26.3034 14.6049 25.7489 15.0595C26.0989 15.1435 26.3964 15.2345 26.6623 15.322C27.2916 15.0738 27.9465 14.8965 28.6151 14.7935C28.2972 14.4953 27.963 14.215 27.6142 13.9536L27.5897 13.9711ZM31.8697 13.1277V13.4777C32.0027 13.3972 32.1531 13.3062 32.3246 13.2117C32.1772 13.1642 32.0243 13.136 31.8697 13.1277ZM31.7227 14.3981C31.6702 14.4354 31.6084 14.4576 31.5442 14.4621C31.4799 14.4666 31.4157 14.4533 31.3585 14.4236C31.3013 14.3939 31.2535 14.3491 31.2202 14.2939C31.1868 14.2388 31.1694 14.1755 31.1698 14.1111V7.91689C30.9644 7.77422 30.7199 7.69844 30.4698 7.69991C30.1855 7.70752 29.9071 7.78312 29.6579 7.92039L30.4314 13.6422C30.4412 13.7136 30.4287 13.7864 30.3956 13.8505C30.3624 13.9146 30.3103 13.9669 30.2463 14.0002C30.1824 14.0335 30.1096 14.0463 30.0382 14.0367C29.9667 14.0271 29.8999 13.9956 29.8469 13.9466C28.4471 12.6658 27.1453 12.3753 26.2774 12.3613C27.5745 12.9744 28.7377 13.8378 29.6999 14.902C29.7471 14.9557 29.7766 15.0225 29.7846 15.0935C29.7927 15.1644 29.7788 15.2361 29.7449 15.299C29.711 15.3618 29.6587 15.4128 29.595 15.4451C29.5313 15.4773 29.4592 15.4893 29.3885 15.4794C28.3386 15.3325 26.6238 16.0919 26.5888 16.1059C26.1029 16.2856 25.6343 16.5093 25.189 16.7743C26.736 16.3288 28.3499 16.1618 29.9554 16.2808C30.0358 16.2885 30.111 16.3236 30.1684 16.3804C30.2258 16.4372 30.2619 16.512 30.2704 16.5923L30.5993 19.5669C31.2607 18.7375 31.5372 17.2152 31.5897 16.6028C31.5944 16.5516 31.6104 16.502 31.6364 16.4577C31.6625 16.4133 31.698 16.3752 31.7404 16.3462C31.7828 16.3171 31.8312 16.2977 31.8819 16.2895C31.9327 16.2812 31.9847 16.2842 32.0342 16.2983C34.3579 16.9738 36.5836 18.8075 37.7069 19.8644C37.4827 18.9495 37.0332 18.1053 36.3993 17.4085C35.7655 16.7117 34.9675 16.1845 34.0779 15.8749C34.0334 15.868 33.9906 15.8525 33.9519 15.8294C33.4922 15.6582 33.0143 15.5407 32.5276 15.4794C32.4643 15.4697 32.4049 15.4428 32.3559 15.4016C32.3068 15.3605 32.27 15.3066 32.2495 15.246C32.2289 15.1854 32.2253 15.1203 32.2392 15.0578C32.2531 14.9953 32.2838 14.9378 32.3281 14.8915C33.3185 13.8416 35.1523 12.9773 36.4961 12.4418C34.1304 12.7183 31.7472 14.3806 31.7227 14.3981ZM33.3325 14.9195C33.5565 14.9755 33.8224 15.0525 34.1129 15.1575C34.8363 14.8253 35.6096 14.6149 36.4016 14.5346C35.5302 13.8801 34.8898 13.9781 34.7533 14.0096C34.2549 14.2723 33.7796 14.5766 33.3325 14.9195ZM19.2328 28.5678C21.6824 32.4173 25.9659 34.3246 31.9397 34.2791C37.8014 34.2301 42.1094 32.0464 44.7481 27.7979L44.8111 27.6999C45.511 26.5976 46.5608 22.2756 43.9292 18.1146C43.2688 16.997 42.2792 16.1108 41.0959 15.5771C39.9126 15.0434 38.5933 14.8883 37.3185 15.133H37.252C36.4907 15.1828 35.7379 15.3214 35.0088 15.5459C36.0211 16.0309 36.886 16.7766 37.5146 17.7066C38.1432 18.6366 38.5128 19.7171 38.5853 20.8373C38.5928 20.9104 38.5772 20.984 38.5405 21.0477C38.5038 21.1113 38.448 21.1619 38.381 21.1921C38.3141 21.2223 38.2393 21.2306 38.1673 21.2159C38.0953 21.2012 38.0297 21.1643 37.9799 21.1102C37.9519 21.0787 35.1803 18.1286 32.2301 17.0892C32.0971 17.9571 31.6737 19.8889 30.5013 20.5888C30.4511 20.6183 30.3942 20.6348 30.3359 20.6368C30.2776 20.6387 30.2198 20.6261 30.1676 20.6C30.1155 20.574 30.0707 20.5353 30.0373 20.4875C30.0039 20.4397 29.983 20.3843 29.9764 20.3263L29.609 16.9458C28.6886 16.9003 25.6929 16.8723 23.6947 18.2196C23.6368 18.2585 23.5685 18.2792 23.4987 18.2791C23.4351 18.2792 23.3727 18.262 23.3182 18.2293C23.2637 18.1966 23.2191 18.1496 23.1892 18.0935C23.1594 18.0374 23.1454 17.9742 23.1487 17.9107C23.1521 17.8472 23.1727 17.7858 23.2083 17.7332C23.3412 17.4532 23.8837 16.5468 25.6579 15.7349C23.3132 15.1295 19.9852 15.035 18.5468 18.699C17.8929 20.2885 17.6142 22.0073 17.7326 23.7219C17.8509 25.4366 18.3631 27.1008 19.2293 28.5853L19.2328 28.5678Z"/>
</mask>
<path d="M17.8749 18.4576C19.3307 14.755 22.5293 14.4961 24.8705 14.8775C25.4927 14.3202 26.1872 13.8493 26.9353 13.4777C26.2468 13.019 25.4534 12.7421 24.6291 12.6728C24.5519 12.6694 24.478 12.6405 24.4189 12.5907C24.3598 12.5409 24.3189 12.4729 24.3025 12.3974C24.2861 12.3218 24.2952 12.243 24.3283 12.1732C24.3614 12.1034 24.4167 12.0465 24.4856 12.0114C25.037 11.7707 25.6338 11.6514 26.2354 11.6614C27.4657 11.6843 28.656 12.1027 29.63 12.8548L28.93 7.7909C28.9213 7.72887 28.9293 7.66563 28.9533 7.60776C28.9773 7.5499 29.0164 7.49954 29.0665 7.46194C29.4781 7.17469 29.9647 7.01412 30.4663 7C30.9345 6.99965 31.387 7.1687 31.7402 7.47594C31.7797 7.50884 31.8115 7.55005 31.8332 7.59662C31.855 7.6432 31.8663 7.694 31.8662 7.74541V12.4278C32.307 12.4487 32.7376 12.5682 33.126 12.7778C34.2424 12.2353 35.7227 11.6964 37.1645 11.6964C37.5546 11.694 37.9435 11.7387 38.3229 11.8294C38.3963 11.8482 38.4617 11.8904 38.5091 11.9496C38.5565 12.0087 38.5834 12.0817 38.5858 12.1575C38.5881 12.2333 38.5658 12.3078 38.5222 12.3698C38.4786 12.4318 38.416 12.4779 38.3439 12.5013C37.5114 12.78 36.6937 13.1012 35.8942 13.4637C36.4495 13.678 36.9512 14.0112 37.364 14.4401C38.7531 14.2213 40.1759 14.4206 41.4515 15.0126C42.7271 15.6046 43.7978 16.5626 44.5276 17.7647C47.1418 21.8836 46.3929 26.5136 45.413 28.0954L45.3535 28.1934C42.5678 32.6553 38.0604 34.9475 31.9432 35H31.7017C25.602 35 21.203 32.9703 18.6273 28.9423C17.7073 27.369 17.161 25.6054 17.0305 23.7875C16.9001 21.9696 17.189 20.1461 17.8749 18.4576ZM27.5897 13.9711C26.9242 14.2378 26.3034 14.6049 25.7489 15.0595C26.0989 15.1435 26.3964 15.2345 26.6623 15.322C27.2916 15.0738 27.9465 14.8965 28.6151 14.7935C28.2972 14.4953 27.963 14.215 27.6142 13.9536L27.5897 13.9711ZM31.8697 13.1277V13.4777C32.0027 13.3972 32.1531 13.3062 32.3246 13.2117C32.1772 13.1642 32.0243 13.136 31.8697 13.1277ZM31.7227 14.3981C31.6702 14.4354 31.6084 14.4576 31.5442 14.4621C31.4799 14.4666 31.4157 14.4533 31.3585 14.4236C31.3013 14.3939 31.2535 14.3491 31.2202 14.2939C31.1868 14.2388 31.1694 14.1755 31.1698 14.1111V7.91689C30.9644 7.77422 30.7199 7.69844 30.4698 7.69991C30.1855 7.70752 29.9071 7.78312 29.6579 7.92039L30.4314 13.6422C30.4412 13.7136 30.4287 13.7864 30.3956 13.8505C30.3624 13.9146 30.3103 13.9669 30.2463 14.0002C30.1824 14.0335 30.1096 14.0463 30.0382 14.0367C29.9667 14.0271 29.8999 13.9956 29.8469 13.9466C28.4471 12.6658 27.1453 12.3753 26.2774 12.3613C27.5745 12.9744 28.7377 13.8378 29.6999 14.902C29.7471 14.9557 29.7766 15.0225 29.7846 15.0935C29.7927 15.1644 29.7788 15.2361 29.7449 15.299C29.711 15.3618 29.6587 15.4128 29.595 15.4451C29.5313 15.4773 29.4592 15.4893 29.3885 15.4794C28.3386 15.3325 26.6238 16.0919 26.5888 16.1059C26.1029 16.2856 25.6343 16.5093 25.189 16.7743C26.736 16.3288 28.3499 16.1618 29.9554 16.2808C30.0358 16.2885 30.111 16.3236 30.1684 16.3804C30.2258 16.4372 30.2619 16.512 30.2704 16.5923L30.5993 19.5669C31.2607 18.7375 31.5372 17.2152 31.5897 16.6028C31.5944 16.5516 31.6104 16.502 31.6364 16.4577C31.6625 16.4133 31.698 16.3752 31.7404 16.3462C31.7828 16.3171 31.8312 16.2977 31.8819 16.2895C31.9327 16.2812 31.9847 16.2842 32.0342 16.2983C34.3579 16.9738 36.5836 18.8075 37.7069 19.8644C37.4827 18.9495 37.0332 18.1053 36.3993 17.4085C35.7655 16.7117 34.9675 16.1845 34.0779 15.8749C34.0334 15.868 33.9906 15.8525 33.9519 15.8294C33.4922 15.6582 33.0143 15.5407 32.5276 15.4794C32.4643 15.4697 32.4049 15.4428 32.3559 15.4016C32.3068 15.3605 32.27 15.3066 32.2495 15.246C32.2289 15.1854 32.2253 15.1203 32.2392 15.0578C32.2531 14.9953 32.2838 14.9378 32.3281 14.8915C33.3185 13.8416 35.1523 12.9773 36.4961 12.4418C34.1304 12.7183 31.7472 14.3806 31.7227 14.3981ZM33.3325 14.9195C33.5565 14.9755 33.8224 15.0525 34.1129 15.1575C34.8363 14.8253 35.6096 14.6149 36.4016 14.5346C35.5302 13.8801 34.8898 13.9781 34.7533 14.0096C34.2549 14.2723 33.7796 14.5766 33.3325 14.9195ZM19.2328 28.5678C21.6824 32.4173 25.9659 34.3246 31.9397 34.2791C37.8014 34.2301 42.1094 32.0464 44.7481 27.7979L44.8111 27.6999C45.511 26.5976 46.5608 22.2756 43.9292 18.1146C43.2688 16.997 42.2792 16.1108 41.0959 15.5771C39.9126 15.0434 38.5933 14.8883 37.3185 15.133H37.252C36.4907 15.1828 35.7379 15.3214 35.0088 15.5459C36.0211 16.0309 36.886 16.7766 37.5146 17.7066C38.1432 18.6366 38.5128 19.7171 38.5853 20.8373C38.5928 20.9104 38.5772 20.984 38.5405 21.0477C38.5038 21.1113 38.448 21.1619 38.381 21.1921C38.3141 21.2223 38.2393 21.2306 38.1673 21.2159C38.0953 21.2012 38.0297 21.1643 37.9799 21.1102C37.9519 21.0787 35.1803 18.1286 32.2301 17.0892C32.0971 17.9571 31.6737 19.8889 30.5013 20.5888C30.4511 20.6183 30.3942 20.6348 30.3359 20.6368C30.2776 20.6387 30.2198 20.6261 30.1676 20.6C30.1155 20.574 30.0707 20.5353 30.0373 20.4875C30.0039 20.4397 29.983 20.3843 29.9764 20.3263L29.609 16.9458C28.6886 16.9003 25.6929 16.8723 23.6947 18.2196C23.6368 18.2585 23.5685 18.2792 23.4987 18.2791C23.4351 18.2792 23.3727 18.262 23.3182 18.2293C23.2637 18.1966 23.2191 18.1496 23.1892 18.0935C23.1594 18.0374 23.1454 17.9742 23.1487 17.9107C23.1521 17.8472 23.1727 17.7858 23.2083 17.7332C23.3412 17.4532 23.8837 16.5468 25.6579 15.7349C23.3132 15.1295 19.9852 15.035 18.5468 18.699C17.8929 20.2885 17.6142 22.0073 17.7326 23.7219C17.8509 25.4366 18.3631 27.1008 19.2293 28.5853L19.2328 28.5678Z" fill="black"/>
<path d="M17.8749 18.4576C19.3307 14.755 22.5293 14.4961 24.8705 14.8775C25.4927 14.3202 26.1872 13.8493 26.9353 13.4777C26.2468 13.019 25.4534 12.7421 24.6291 12.6728C24.5519 12.6694 24.478 12.6405 24.4189 12.5907C24.3598 12.5409 24.3189 12.4729 24.3025 12.3974C24.2861 12.3218 24.2952 12.243 24.3283 12.1732C24.3614 12.1034 24.4167 12.0465 24.4856 12.0114C25.037 11.7707 25.6338 11.6514 26.2354 11.6614C27.4657 11.6843 28.656 12.1027 29.63 12.8548L28.93 7.7909C28.9213 7.72887 28.9293 7.66563 28.9533 7.60776C28.9773 7.5499 29.0164 7.49954 29.0665 7.46194C29.4781 7.17469 29.9647 7.01412 30.4663 7C30.9345 6.99965 31.387 7.1687 31.7402 7.47594C31.7797 7.50884 31.8115 7.55005 31.8332 7.59662C31.855 7.6432 31.8663 7.694 31.8662 7.74541V12.4278C32.307 12.4487 32.7376 12.5682 33.126 12.7778C34.2424 12.2353 35.7227 11.6964 37.1645 11.6964C37.5546 11.694 37.9435 11.7387 38.3229 11.8294C38.3963 11.8482 38.4617 11.8904 38.5091 11.9496C38.5565 12.0087 38.5834 12.0817 38.5858 12.1575C38.5881 12.2333 38.5658 12.3078 38.5222 12.3698C38.4786 12.4318 38.416 12.4779 38.3439 12.5013C37.5114 12.78 36.6937 13.1012 35.8942 13.4637C36.4495 13.678 36.9512 14.0112 37.364 14.4401C38.7531 14.2213 40.1759 14.4206 41.4515 15.0126C42.7271 15.6046 43.7978 16.5626 44.5276 17.7647C47.1418 21.8836 46.3929 26.5136 45.413 28.0954L45.3535 28.1934C42.5678 32.6553 38.0604 34.9475 31.9432 35H31.7017C25.602 35 21.203 32.9703 18.6273 28.9423C17.7073 27.369 17.161 25.6054 17.0305 23.7875C16.9001 21.9696 17.189 20.1461 17.8749 18.4576ZM27.5897 13.9711C26.9242 14.2378 26.3034 14.6049 25.7489 15.0595C26.0989 15.1435 26.3964 15.2345 26.6623 15.322C27.2916 15.0738 27.9465 14.8965 28.6151 14.7935C28.2972 14.4953 27.963 14.215 27.6142 13.9536L27.5897 13.9711ZM31.8697 13.1277V13.4777C32.0027 13.3972 32.1531 13.3062 32.3246 13.2117C32.1772 13.1642 32.0243 13.136 31.8697 13.1277ZM31.7227 14.3981C31.6702 14.4354 31.6084 14.4576 31.5442 14.4621C31.4799 14.4666 31.4157 14.4533 31.3585 14.4236C31.3013 14.3939 31.2535 14.3491 31.2202 14.2939C31.1868 14.2388 31.1694 14.1755 31.1698 14.1111V7.91689C30.9644 7.77422 30.7199 7.69844 30.4698 7.69991C30.1855 7.70752 29.9071 7.78312 29.6579 7.92039L30.4314 13.6422C30.4412 13.7136 30.4287 13.7864 30.3956 13.8505C30.3624 13.9146 30.3103 13.9669 30.2463 14.0002C30.1824 14.0335 30.1096 14.0463 30.0382 14.0367C29.9667 14.0271 29.8999 13.9956 29.8469 13.9466C28.4471 12.6658 27.1453 12.3753 26.2774 12.3613C27.5745 12.9744 28.7377 13.8378 29.6999 14.902C29.7471 14.9557 29.7766 15.0225 29.7846 15.0935C29.7927 15.1644 29.7788 15.2361 29.7449 15.299C29.711 15.3618 29.6587 15.4128 29.595 15.4451C29.5313 15.4773 29.4592 15.4893 29.3885 15.4794C28.3386 15.3325 26.6238 16.0919 26.5888 16.1059C26.1029 16.2856 25.6343 16.5093 25.189 16.7743C26.736 16.3288 28.3499 16.1618 29.9554 16.2808C30.0358 16.2885 30.111 16.3236 30.1684 16.3804C30.2258 16.4372 30.2619 16.512 30.2704 16.5923L30.5993 19.5669C31.2607 18.7375 31.5372 17.2152 31.5897 16.6028C31.5944 16.5516 31.6104 16.502 31.6364 16.4577C31.6625 16.4133 31.698 16.3752 31.7404 16.3462C31.7828 16.3171 31.8312 16.2977 31.8819 16.2895C31.9327 16.2812 31.9847 16.2842 32.0342 16.2983C34.3579 16.9738 36.5836 18.8075 37.7069 19.8644C37.4827 18.9495 37.0332 18.1053 36.3993 17.4085C35.7655 16.7117 34.9675 16.1845 34.0779 15.8749C34.0334 15.868 33.9906 15.8525 33.9519 15.8294C33.4922 15.6582 33.0143 15.5407 32.5276 15.4794C32.4643 15.4697 32.4049 15.4428 32.3559 15.4016C32.3068 15.3605 32.27 15.3066 32.2495 15.246C32.2289 15.1854 32.2253 15.1203 32.2392 15.0578C32.2531 14.9953 32.2838 14.9378 32.3281 14.8915C33.3185 13.8416 35.1523 12.9773 36.4961 12.4418C34.1304 12.7183 31.7472 14.3806 31.7227 14.3981ZM33.3325 14.9195C33.5565 14.9755 33.8224 15.0525 34.1129 15.1575C34.8363 14.8253 35.6096 14.6149 36.4016 14.5346C35.5302 13.8801 34.8898 13.9781 34.7533 14.0096C34.2549 14.2723 33.7796 14.5766 33.3325 14.9195ZM19.2328 28.5678C21.6824 32.4173 25.9659 34.3246 31.9397 34.2791C37.8014 34.2301 42.1094 32.0464 44.7481 27.7979L44.8111 27.6999C45.511 26.5976 46.5608 22.2756 43.9292 18.1146C43.2688 16.997 42.2792 16.1108 41.0959 15.5771C39.9126 15.0434 38.5933 14.8883 37.3185 15.133H37.252C36.4907 15.1828 35.7379 15.3214 35.0088 15.5459C36.0211 16.0309 36.886 16.7766 37.5146 17.7066C38.1432 18.6366 38.5128 19.7171 38.5853 20.8373C38.5928 20.9104 38.5772 20.984 38.5405 21.0477C38.5038 21.1113 38.448 21.1619 38.381 21.1921C38.3141 21.2223 38.2393 21.2306 38.1673 21.2159C38.0953 21.2012 38.0297 21.1643 37.9799 21.1102C37.9519 21.0787 35.1803 18.1286 32.2301 17.0892C32.0971 17.9571 31.6737 19.8889 30.5013 20.5888C30.4511 20.6183 30.3942 20.6348 30.3359 20.6368C30.2776 20.6387 30.2198 20.6261 30.1676 20.6C30.1155 20.574 30.0707 20.5353 30.0373 20.4875C30.0039 20.4397 29.983 20.3843 29.9764 20.3263L29.609 16.9458C28.6886 16.9003 25.6929 16.8723 23.6947 18.2196C23.6368 18.2585 23.5685 18.2792 23.4987 18.2791C23.4351 18.2792 23.3727 18.262 23.3182 18.2293C23.2637 18.1966 23.2191 18.1496 23.1892 18.0935C23.1594 18.0374 23.1454 17.9742 23.1487 17.9107C23.1521 17.8472 23.1727 17.7858 23.2083 17.7332C23.3412 17.4532 23.8837 16.5468 25.6579 15.7349C23.3132 15.1295 19.9852 15.035 18.5468 18.699C17.8929 20.2885 17.6142 22.0073 17.7326 23.7219C17.8509 25.4366 18.3631 27.1008 19.2293 28.5853L19.2328 28.5678Z" stroke="black" stroke-width="0.4" mask="url(#path-6-outside-1)"/>
<path d="M19.3447 22.895C19.4371 22.8862 19.5291 22.9144 19.6007 22.9735C19.6722 23.0326 19.7173 23.1176 19.7262 23.2099C19.7262 23.3044 20.7481 32.5258 31.6562 32.6937C31.749 32.6937 31.838 32.7306 31.9037 32.7962C31.9693 32.8619 32.0062 32.9509 32.0062 33.0437C32.0062 33.1365 31.9693 33.2255 31.9037 33.2912C31.838 33.3568 31.749 33.3937 31.6562 33.3937C20.1216 33.2152 19.0298 23.3779 19.0298 23.2799C19.025 23.2339 19.0293 23.1874 19.0425 23.1431C19.0558 23.0988 19.0777 23.0576 19.107 23.0218C19.1363 22.986 19.1724 22.9563 19.2132 22.9346C19.254 22.9128 19.2987 22.8993 19.3447 22.895Z" fill="black"/>
</svg>
